# xmcd
#
# Track frame offsets:
#	150
#	15340
#	38291
#	54320
#	73103
#	89550
#	107748
#	122566
#	137341
#	155386
#	170825
#
# Disc length: 2482 seconds
#
# Revision: 0
# Processed by: cddbd v1.5.2PL0 Copyright (c) Steve Scherf et al.
# Submitted via: dBpowerAMP V4.0
#
DISCID=8309b00b
DTITLE=Jason Aldean - Jason Aldean
DYEAR=2005
DGENRE=Country
TTITLE0=Hicktown (Radio Edit)
TTITLE1=Amarillo Sky
TTITLE2=Why
TTITLE3=Even If I Wanted Too
TTITLE4=Lonesome Usa
TTITLE5=Asphalt Cowboy
TTITLE6=I'm Just a Man
TTITLE7=You're The Love I Wanna Be In
TTITLE8=Good To Go
TTITLE9=I Believe in Ghosts
TTITLE10=She Loved Me
EXTD=
EXTT0=
EXTT1=
EXTT2=
EXTT3=
EXTT4=
EXTT5=
EXTT6=
EXTT7=
EXTT8=
EXTT9=
EXTT10=
PLAYORDER=
